<mxfile host="app.diagrams.net" agent="Mozilla/5.0 (Windows NT 10.0; Win64; x64) AppleWebKit/537.36 (KHTML, like Gecko) Chrome/131.0.0.0 Safari/537.36" version="24.9.1">
  <diagram id="C5RBs43oDa-KdzZeNtuy" name="Page-1">
    <mxGraphModel dx="453" dy="654" grid="1" gridSize="10" guides="1" tooltips="1" connect="1" arrows="1" fold="1" page="1" pageScale="1" pageWidth="827" pageHeight="1169" math="0" shadow="0">
      <root>
        <mxCell id="WIyWlLk6GJQsqaUBKTNV-0" />
        <mxCell id="WIyWlLk6GJQsqaUBKTNV-1" parent="WIyWlLk6GJQsqaUBKTNV-0" />
        <mxCell id="SVkBWETr6s5QJQo4iJXT-45" style="edgeStyle=orthogonalEdgeStyle;rounded=0;orthogonalLoop=1;jettySize=auto;html=1;entryX=0.5;entryY=0;entryDx=0;entryDy=0;" edge="1" parent="WIyWlLk6GJQsqaUBKTNV-1" source="SVkBWETr6s5QJQo4iJXT-0" target="SVkBWETr6s5QJQo4iJXT-1">
          <mxGeometry relative="1" as="geometry" />
        </mxCell>
        <mxCell id="SVkBWETr6s5QJQo4iJXT-0" value="&lt;font style=&quot;font-size: 8px;&quot;&gt;Начало&lt;/font&gt;" style="ellipse;whiteSpace=wrap;html=1;" vertex="1" parent="WIyWlLk6GJQsqaUBKTNV-1">
          <mxGeometry x="245" y="470" width="70" height="30" as="geometry" />
        </mxCell>
        <mxCell id="SVkBWETr6s5QJQo4iJXT-48" style="edgeStyle=orthogonalEdgeStyle;rounded=0;orthogonalLoop=1;jettySize=auto;html=1;entryX=0.5;entryY=0;entryDx=0;entryDy=0;" edge="1" parent="WIyWlLk6GJQsqaUBKTNV-1" source="SVkBWETr6s5QJQo4iJXT-1" target="SVkBWETr6s5QJQo4iJXT-9">
          <mxGeometry relative="1" as="geometry" />
        </mxCell>
        <mxCell id="SVkBWETr6s5QJQo4iJXT-49" value="&lt;font style=&quot;font-size: 8px;&quot;&gt;{&lt;/font&gt;" style="edgeLabel;html=1;align=center;verticalAlign=middle;resizable=0;points=[];" vertex="1" connectable="0" parent="SVkBWETr6s5QJQo4iJXT-48">
          <mxGeometry x="0.4691" y="-1" relative="1" as="geometry">
            <mxPoint x="-9" as="offset" />
          </mxGeometry>
        </mxCell>
        <mxCell id="SVkBWETr6s5QJQo4iJXT-1" value="&lt;font style=&quot;font-size: 8px;&quot;&gt;int main()&lt;/font&gt;" style="shape=process;whiteSpace=wrap;html=1;backgroundOutline=1;" vertex="1" parent="WIyWlLk6GJQsqaUBKTNV-1">
          <mxGeometry x="240" y="540" width="80" height="20" as="geometry" />
        </mxCell>
        <mxCell id="SVkBWETr6s5QJQo4iJXT-3" value="" style="endArrow=none;html=1;rounded=0;" edge="1" parent="WIyWlLk6GJQsqaUBKTNV-1">
          <mxGeometry width="50" height="50" relative="1" as="geometry">
            <mxPoint x="370" y="500" as="sourcePoint" />
            <mxPoint x="370" y="430" as="targetPoint" />
          </mxGeometry>
        </mxCell>
        <mxCell id="SVkBWETr6s5QJQo4iJXT-4" value="" style="endArrow=none;html=1;rounded=0;" edge="1" parent="WIyWlLk6GJQsqaUBKTNV-1">
          <mxGeometry width="50" height="50" relative="1" as="geometry">
            <mxPoint x="370" y="430" as="sourcePoint" />
            <mxPoint x="436" y="430" as="targetPoint" />
          </mxGeometry>
        </mxCell>
        <mxCell id="SVkBWETr6s5QJQo4iJXT-5" value="&lt;div&gt;&lt;font style=&quot;font-size: 8px;&quot;&gt;#include &amp;lt;iostream&amp;gt;&lt;/font&gt;&lt;/div&gt;&lt;div&gt;&lt;font style=&quot;font-size: 8px;&quot;&gt;#include &amp;lt;iomanip&amp;gt;&amp;nbsp;&lt;/font&gt;&lt;/div&gt;&lt;div&gt;&lt;font style=&quot;font-size: 8px;&quot;&gt;#include &amp;lt;cmath&amp;gt;&lt;/font&gt;&lt;/div&gt;&lt;div&gt;&lt;font style=&quot;&quot;&gt;&lt;span style=&quot;font-size: 8px;&quot;&gt;using namespace std;&lt;/span&gt;&lt;/font&gt;&lt;/div&gt;&lt;div&gt;&lt;font style=&quot;&quot;&gt;&lt;span style=&quot;font-size: 8px;&quot;&gt;double Epsilon = 0.000001;&amp;nbsp;&lt;/span&gt;&lt;/font&gt;&lt;/div&gt;&lt;div&gt;&lt;font style=&quot;&quot;&gt;&lt;span style=&quot;font-size: 8px;&quot;&gt;double x0 = 2;&amp;nbsp;&amp;nbsp;&lt;/span&gt;&lt;/font&gt;&lt;/div&gt;&lt;div&gt;&lt;font style=&quot;&quot;&gt;&lt;span style=&quot;font-size: 8px;&quot;&gt;double x1 = 2;&amp;nbsp;&lt;/span&gt;&lt;/font&gt;&lt;/div&gt;&lt;div&gt;&lt;font style=&quot;&quot;&gt;&lt;span style=&quot;font-size: 8px;&quot;&gt;double buffer;&amp;nbsp;&lt;/span&gt;&lt;/font&gt;&lt;/div&gt;&lt;div&gt;&lt;font style=&quot;&quot;&gt;&lt;span style=&quot;font-size: 8px;&quot;&gt;double equation(double x) {}&lt;br&gt;&lt;/span&gt;&lt;/font&gt;&lt;span style=&quot;background-color: initial; font-size: 8px;&quot;&gt;void out() {}&lt;/span&gt;&lt;/div&gt;&lt;div&gt;&lt;span style=&quot;font-size: 8px; background-color: initial;&quot;&gt;void NewtonMethod() {}&lt;/span&gt;&lt;/div&gt;&lt;div&gt;&lt;span style=&quot;background-color: initial;&quot;&gt;&lt;span style=&quot;font-size: 8px;&quot;&gt;void DivisionMethod() {}&lt;/span&gt;&lt;/span&gt;&lt;/div&gt;&lt;div&gt;&lt;span style=&quot;background-color: initial;&quot;&gt;&lt;span style=&quot;font-size: 8px;&quot;&gt;void IterationMethod() {}&lt;/span&gt;&lt;/span&gt;&lt;/div&gt;" style="text;html=1;align=left;verticalAlign=middle;whiteSpace=wrap;rounded=0;" vertex="1" parent="WIyWlLk6GJQsqaUBKTNV-1">
          <mxGeometry x="376" y="440" width="170" height="170" as="geometry" />
        </mxCell>
        <mxCell id="SVkBWETr6s5QJQo4iJXT-6" style="edgeStyle=orthogonalEdgeStyle;rounded=0;orthogonalLoop=1;jettySize=auto;html=1;exitX=0.5;exitY=1;exitDx=0;exitDy=0;" edge="1" parent="WIyWlLk6GJQsqaUBKTNV-1" source="SVkBWETr6s5QJQo4iJXT-0" target="SVkBWETr6s5QJQo4iJXT-0">
          <mxGeometry relative="1" as="geometry" />
        </mxCell>
        <mxCell id="SVkBWETr6s5QJQo4iJXT-7" value="" style="endArrow=none;html=1;rounded=0;" edge="1" parent="WIyWlLk6GJQsqaUBKTNV-1">
          <mxGeometry width="50" height="50" relative="1" as="geometry">
            <mxPoint x="370" y="620" as="sourcePoint" />
            <mxPoint x="370" y="500" as="targetPoint" />
          </mxGeometry>
        </mxCell>
        <mxCell id="SVkBWETr6s5QJQo4iJXT-8" value="" style="endArrow=none;html=1;rounded=0;" edge="1" parent="WIyWlLk6GJQsqaUBKTNV-1">
          <mxGeometry width="50" height="50" relative="1" as="geometry">
            <mxPoint x="370" y="620" as="sourcePoint" />
            <mxPoint x="436" y="620" as="targetPoint" />
          </mxGeometry>
        </mxCell>
        <mxCell id="SVkBWETr6s5QJQo4iJXT-44" style="edgeStyle=orthogonalEdgeStyle;rounded=0;orthogonalLoop=1;jettySize=auto;html=1;entryX=0.5;entryY=0;entryDx=0;entryDy=0;" edge="1" parent="WIyWlLk6GJQsqaUBKTNV-1" source="SVkBWETr6s5QJQo4iJXT-9" target="SVkBWETr6s5QJQo4iJXT-10">
          <mxGeometry relative="1" as="geometry" />
        </mxCell>
        <mxCell id="SVkBWETr6s5QJQo4iJXT-9" value="&lt;font style=&quot;font-size: 8px;&quot;&gt;int switcher;&lt;/font&gt;&lt;div&gt;&lt;div&gt;&lt;font style=&quot;font-size: 8px;&quot;&gt;setlocale(LC_ALL, &quot;RU&quot;);&lt;/font&gt;&lt;/div&gt;&lt;/div&gt;" style="rounded=0;whiteSpace=wrap;html=1;align=left;" vertex="1" parent="WIyWlLk6GJQsqaUBKTNV-1">
          <mxGeometry x="205" y="585" width="150" height="30" as="geometry" />
        </mxCell>
        <mxCell id="SVkBWETr6s5QJQo4iJXT-55" style="edgeStyle=orthogonalEdgeStyle;rounded=0;orthogonalLoop=1;jettySize=auto;html=1;entryX=0.5;entryY=0;entryDx=0;entryDy=0;" edge="1" parent="WIyWlLk6GJQsqaUBKTNV-1" source="SVkBWETr6s5QJQo4iJXT-10" target="SVkBWETr6s5QJQo4iJXT-11">
          <mxGeometry relative="1" as="geometry" />
        </mxCell>
        <mxCell id="SVkBWETr6s5QJQo4iJXT-56" value="&lt;span style=&quot;font-size: 8px;&quot;&gt;{&lt;/span&gt;" style="edgeLabel;html=1;align=center;verticalAlign=middle;resizable=0;points=[];shadow=1;" vertex="1" connectable="0" parent="SVkBWETr6s5QJQo4iJXT-55">
          <mxGeometry x="0.4182" y="-1" relative="1" as="geometry">
            <mxPoint x="-9" y="-4" as="offset" />
          </mxGeometry>
        </mxCell>
        <mxCell id="SVkBWETr6s5QJQo4iJXT-58" value="&lt;font style=&quot;font-size: 8px;&quot;&gt;1&lt;/font&gt;" style="edgeLabel;html=1;align=center;verticalAlign=middle;resizable=0;points=[];" vertex="1" connectable="0" parent="SVkBWETr6s5QJQo4iJXT-55">
          <mxGeometry x="0.3939" relative="1" as="geometry">
            <mxPoint x="10" y="-3" as="offset" />
          </mxGeometry>
        </mxCell>
        <mxCell id="SVkBWETr6s5QJQo4iJXT-10" value="&lt;font style=&quot;font-size: 8px;&quot;&gt;while (true)&lt;/font&gt;" style="rhombus;whiteSpace=wrap;html=1;" vertex="1" parent="WIyWlLk6GJQsqaUBKTNV-1">
          <mxGeometry x="245" y="635" width="70" height="30" as="geometry" />
        </mxCell>
        <mxCell id="SVkBWETr6s5QJQo4iJXT-59" style="edgeStyle=orthogonalEdgeStyle;rounded=0;orthogonalLoop=1;jettySize=auto;html=1;entryX=0.5;entryY=0;entryDx=0;entryDy=0;" edge="1" parent="WIyWlLk6GJQsqaUBKTNV-1" source="SVkBWETr6s5QJQo4iJXT-11" target="SVkBWETr6s5QJQo4iJXT-12">
          <mxGeometry relative="1" as="geometry" />
        </mxCell>
        <mxCell id="SVkBWETr6s5QJQo4iJXT-11" value="&lt;font style=&quot;font-size: 8px;&quot;&gt;cout &amp;lt;&amp;lt; &quot;Выберите метод решения нелинейного уравнения: 1 - метод Ньютона, &lt;br&gt;2 - метод половинного деления, 3 - метод итераций, 0 - выход&quot; &amp;lt;&amp;lt; endl;&lt;/font&gt;" style="shape=parallelogram;perimeter=parallelogramPerimeter;whiteSpace=wrap;html=1;fixedSize=1;" vertex="1" parent="WIyWlLk6GJQsqaUBKTNV-1">
          <mxGeometry x="90" y="690" width="380" height="30" as="geometry" />
        </mxCell>
        <mxCell id="SVkBWETr6s5QJQo4iJXT-61" style="edgeStyle=orthogonalEdgeStyle;rounded=0;orthogonalLoop=1;jettySize=auto;html=1;entryX=0.5;entryY=0;entryDx=0;entryDy=0;" edge="1" parent="WIyWlLk6GJQsqaUBKTNV-1" source="SVkBWETr6s5QJQo4iJXT-12" target="SVkBWETr6s5QJQo4iJXT-13">
          <mxGeometry relative="1" as="geometry" />
        </mxCell>
        <mxCell id="SVkBWETr6s5QJQo4iJXT-12" value="&lt;font style=&quot;font-size: 8px;&quot;&gt;cin &amp;gt;&amp;gt; switcher;&lt;/font&gt;" style="shape=parallelogram;perimeter=parallelogramPerimeter;whiteSpace=wrap;html=1;fixedSize=1;" vertex="1" parent="WIyWlLk6GJQsqaUBKTNV-1">
          <mxGeometry x="230" y="740" width="100" height="20" as="geometry" />
        </mxCell>
        <mxCell id="SVkBWETr6s5QJQo4iJXT-13" value="&lt;font style=&quot;font-size: 8px;&quot;&gt;switch (switcher)&lt;/font&gt;" style="rhombus;whiteSpace=wrap;html=1;" vertex="1" parent="WIyWlLk6GJQsqaUBKTNV-1">
          <mxGeometry x="230" y="790" width="100" height="40" as="geometry" />
        </mxCell>
        <mxCell id="SVkBWETr6s5QJQo4iJXT-14" value="&lt;font style=&quot;font-size: 8px;&quot;&gt;case 1:&lt;/font&gt;" style="rounded=0;whiteSpace=wrap;html=1;" vertex="1" parent="WIyWlLk6GJQsqaUBKTNV-1">
          <mxGeometry x="300" y="850" width="50" height="20" as="geometry" />
        </mxCell>
        <mxCell id="SVkBWETr6s5QJQo4iJXT-15" value="&lt;font style=&quot;font-size: 8px;&quot;&gt;case 2:&lt;/font&gt;" style="rounded=0;whiteSpace=wrap;html=1;" vertex="1" parent="WIyWlLk6GJQsqaUBKTNV-1">
          <mxGeometry x="300" y="890" width="50" height="20" as="geometry" />
        </mxCell>
        <mxCell id="SVkBWETr6s5QJQo4iJXT-16" value="&lt;font style=&quot;font-size: 8px;&quot;&gt;case 3:&lt;/font&gt;" style="rounded=0;whiteSpace=wrap;html=1;" vertex="1" parent="WIyWlLk6GJQsqaUBKTNV-1">
          <mxGeometry x="300" y="930" width="50" height="20" as="geometry" />
        </mxCell>
        <mxCell id="SVkBWETr6s5QJQo4iJXT-17" value="&lt;font style=&quot;font-size: 8px;&quot;&gt;case 0:&lt;/font&gt;" style="rounded=0;whiteSpace=wrap;html=1;" vertex="1" parent="WIyWlLk6GJQsqaUBKTNV-1">
          <mxGeometry x="300" y="970" width="50" height="20" as="geometry" />
        </mxCell>
        <mxCell id="SVkBWETr6s5QJQo4iJXT-20" value="&lt;font style=&quot;font-size: 8px;&quot;&gt;NewtonMethod();&lt;/font&gt;" style="rounded=0;whiteSpace=wrap;html=1;" vertex="1" parent="WIyWlLk6GJQsqaUBKTNV-1">
          <mxGeometry x="365" y="850" width="70" height="20" as="geometry" />
        </mxCell>
        <mxCell id="SVkBWETr6s5QJQo4iJXT-21" value="&lt;font style=&quot;font-size: 8px;&quot;&gt;DivisionMethod();&lt;/font&gt;" style="rounded=0;whiteSpace=wrap;html=1;" vertex="1" parent="WIyWlLk6GJQsqaUBKTNV-1">
          <mxGeometry x="365" y="890" width="70" height="20" as="geometry" />
        </mxCell>
        <mxCell id="SVkBWETr6s5QJQo4iJXT-22" value="&lt;font style=&quot;font-size: 8px;&quot;&gt;IterationMethod();&lt;/font&gt;" style="rounded=0;whiteSpace=wrap;html=1;" vertex="1" parent="WIyWlLk6GJQsqaUBKTNV-1">
          <mxGeometry x="365" y="930" width="70" height="20" as="geometry" />
        </mxCell>
        <mxCell id="SVkBWETr6s5QJQo4iJXT-64" style="edgeStyle=orthogonalEdgeStyle;rounded=0;orthogonalLoop=1;jettySize=auto;html=1;" edge="1" parent="WIyWlLk6GJQsqaUBKTNV-1" source="SVkBWETr6s5QJQo4iJXT-23">
          <mxGeometry relative="1" as="geometry">
            <mxPoint x="280" y="620" as="targetPoint" />
            <Array as="points">
              <mxPoint x="540" y="860" />
              <mxPoint x="540" y="1010" />
              <mxPoint x="80" y="1010" />
              <mxPoint x="80" y="620" />
              <mxPoint x="280" y="620" />
            </Array>
          </mxGeometry>
        </mxCell>
        <mxCell id="SVkBWETr6s5QJQo4iJXT-69" value="&lt;font style=&quot;font-size: 8px;&quot;&gt;}&lt;/font&gt;" style="edgeLabel;html=1;align=center;verticalAlign=middle;resizable=0;points=[];" vertex="1" connectable="0" parent="SVkBWETr6s5QJQo4iJXT-64">
          <mxGeometry x="-0.792" y="1" relative="1" as="geometry">
            <mxPoint x="5" y="-4" as="offset" />
          </mxGeometry>
        </mxCell>
        <mxCell id="SVkBWETr6s5QJQo4iJXT-70" value="&lt;font style=&quot;font-size: 8px;&quot;&gt;}&lt;/font&gt;" style="edgeLabel;html=1;align=center;verticalAlign=middle;resizable=0;points=[];" vertex="1" connectable="0" parent="SVkBWETr6s5QJQo4iJXT-64">
          <mxGeometry x="0.9594" y="-1" relative="1" as="geometry">
            <mxPoint y="9" as="offset" />
          </mxGeometry>
        </mxCell>
        <mxCell id="SVkBWETr6s5QJQo4iJXT-23" value="&lt;font style=&quot;font-size: 8px;&quot;&gt;break;&lt;/font&gt;" style="rounded=0;whiteSpace=wrap;html=1;" vertex="1" parent="WIyWlLk6GJQsqaUBKTNV-1">
          <mxGeometry x="455" y="850" width="50" height="20" as="geometry" />
        </mxCell>
        <mxCell id="SVkBWETr6s5QJQo4iJXT-24" value="&lt;span style=&quot;font-size: 8px;&quot;&gt;break;&lt;/span&gt;" style="rounded=0;whiteSpace=wrap;html=1;" vertex="1" parent="WIyWlLk6GJQsqaUBKTNV-1">
          <mxGeometry x="455" y="890" width="50" height="20" as="geometry" />
        </mxCell>
        <mxCell id="SVkBWETr6s5QJQo4iJXT-25" value="&lt;span style=&quot;font-size: 8px;&quot;&gt;break;&lt;/span&gt;" style="rounded=0;whiteSpace=wrap;html=1;" vertex="1" parent="WIyWlLk6GJQsqaUBKTNV-1">
          <mxGeometry x="455" y="930" width="50" height="20" as="geometry" />
        </mxCell>
        <mxCell id="SVkBWETr6s5QJQo4iJXT-26" value="&lt;font style=&quot;font-size: 8px;&quot;&gt;return 0;&lt;/font&gt;" style="ellipse;whiteSpace=wrap;html=1;" vertex="1" parent="WIyWlLk6GJQsqaUBKTNV-1">
          <mxGeometry x="365" y="965" width="50" height="30" as="geometry" />
        </mxCell>
        <mxCell id="SVkBWETr6s5QJQo4iJXT-28" value="" style="endArrow=none;html=1;rounded=0;exitX=1;exitY=0.5;exitDx=0;exitDy=0;entryX=0;entryY=0.5;entryDx=0;entryDy=0;" edge="1" parent="WIyWlLk6GJQsqaUBKTNV-1" source="SVkBWETr6s5QJQo4iJXT-14" target="SVkBWETr6s5QJQo4iJXT-20">
          <mxGeometry width="50" height="50" relative="1" as="geometry">
            <mxPoint x="435" y="900" as="sourcePoint" />
            <mxPoint x="485" y="850" as="targetPoint" />
          </mxGeometry>
        </mxCell>
        <mxCell id="SVkBWETr6s5QJQo4iJXT-29" value="" style="endArrow=none;html=1;rounded=0;exitX=1;exitY=0.5;exitDx=0;exitDy=0;entryX=0;entryY=0.5;entryDx=0;entryDy=0;" edge="1" parent="WIyWlLk6GJQsqaUBKTNV-1">
          <mxGeometry width="50" height="50" relative="1" as="geometry">
            <mxPoint x="350" y="899.86" as="sourcePoint" />
            <mxPoint x="365" y="899.86" as="targetPoint" />
          </mxGeometry>
        </mxCell>
        <mxCell id="SVkBWETr6s5QJQo4iJXT-30" value="" style="endArrow=none;html=1;rounded=0;exitX=1;exitY=0.5;exitDx=0;exitDy=0;entryX=0;entryY=0.5;entryDx=0;entryDy=0;" edge="1" parent="WIyWlLk6GJQsqaUBKTNV-1">
          <mxGeometry width="50" height="50" relative="1" as="geometry">
            <mxPoint x="350" y="939.86" as="sourcePoint" />
            <mxPoint x="365" y="939.86" as="targetPoint" />
          </mxGeometry>
        </mxCell>
        <mxCell id="SVkBWETr6s5QJQo4iJXT-33" value="" style="endArrow=none;html=1;rounded=0;exitX=1;exitY=0.5;exitDx=0;exitDy=0;entryX=0;entryY=0.5;entryDx=0;entryDy=0;" edge="1" parent="WIyWlLk6GJQsqaUBKTNV-1" target="SVkBWETr6s5QJQo4iJXT-23">
          <mxGeometry width="50" height="50" relative="1" as="geometry">
            <mxPoint x="435" y="859.86" as="sourcePoint" />
            <mxPoint x="450" y="840" as="targetPoint" />
          </mxGeometry>
        </mxCell>
        <mxCell id="SVkBWETr6s5QJQo4iJXT-35" value="" style="endArrow=none;html=1;rounded=0;exitX=1;exitY=0.5;exitDx=0;exitDy=0;entryX=0;entryY=0.5;entryDx=0;entryDy=0;" edge="1" parent="WIyWlLk6GJQsqaUBKTNV-1">
          <mxGeometry width="50" height="50" relative="1" as="geometry">
            <mxPoint x="350" y="979.86" as="sourcePoint" />
            <mxPoint x="365" y="979.86" as="targetPoint" />
          </mxGeometry>
        </mxCell>
        <mxCell id="SVkBWETr6s5QJQo4iJXT-36" value="" style="endArrow=none;html=1;rounded=0;" edge="1" parent="WIyWlLk6GJQsqaUBKTNV-1">
          <mxGeometry width="50" height="50" relative="1" as="geometry">
            <mxPoint x="280" y="980" as="sourcePoint" />
            <mxPoint x="280" y="830" as="targetPoint" />
          </mxGeometry>
        </mxCell>
        <mxCell id="SVkBWETr6s5QJQo4iJXT-62" value="&lt;font style=&quot;font-size: 8px;&quot;&gt;{&lt;/font&gt;" style="edgeLabel;html=1;align=center;verticalAlign=middle;resizable=0;points=[];" vertex="1" connectable="0" parent="SVkBWETr6s5QJQo4iJXT-36">
          <mxGeometry x="0.7911" relative="1" as="geometry">
            <mxPoint x="-10" as="offset" />
          </mxGeometry>
        </mxCell>
        <mxCell id="SVkBWETr6s5QJQo4iJXT-37" value="" style="endArrow=none;html=1;rounded=0;entryX=0;entryY=0.5;entryDx=0;entryDy=0;" edge="1" parent="WIyWlLk6GJQsqaUBKTNV-1" target="SVkBWETr6s5QJQo4iJXT-17">
          <mxGeometry width="50" height="50" relative="1" as="geometry">
            <mxPoint x="280" y="980" as="sourcePoint" />
            <mxPoint x="320" y="930" as="targetPoint" />
          </mxGeometry>
        </mxCell>
        <mxCell id="SVkBWETr6s5QJQo4iJXT-38" value="" style="endArrow=none;html=1;rounded=0;exitX=1;exitY=0.5;exitDx=0;exitDy=0;entryX=0;entryY=0.5;entryDx=0;entryDy=0;" edge="1" parent="WIyWlLk6GJQsqaUBKTNV-1">
          <mxGeometry width="50" height="50" relative="1" as="geometry">
            <mxPoint x="435" y="899.86" as="sourcePoint" />
            <mxPoint x="455" y="900" as="targetPoint" />
          </mxGeometry>
        </mxCell>
        <mxCell id="SVkBWETr6s5QJQo4iJXT-39" value="" style="endArrow=none;html=1;rounded=0;exitX=1;exitY=0.5;exitDx=0;exitDy=0;entryX=0;entryY=0.5;entryDx=0;entryDy=0;" edge="1" parent="WIyWlLk6GJQsqaUBKTNV-1">
          <mxGeometry width="50" height="50" relative="1" as="geometry">
            <mxPoint x="435" y="939.86" as="sourcePoint" />
            <mxPoint x="455" y="940" as="targetPoint" />
          </mxGeometry>
        </mxCell>
        <mxCell id="SVkBWETr6s5QJQo4iJXT-41" value="" style="endArrow=none;html=1;rounded=0;" edge="1" parent="WIyWlLk6GJQsqaUBKTNV-1">
          <mxGeometry width="50" height="50" relative="1" as="geometry">
            <mxPoint x="280" y="859.86" as="sourcePoint" />
            <mxPoint x="300" y="860" as="targetPoint" />
          </mxGeometry>
        </mxCell>
        <mxCell id="SVkBWETr6s5QJQo4iJXT-42" value="" style="endArrow=none;html=1;rounded=0;" edge="1" parent="WIyWlLk6GJQsqaUBKTNV-1">
          <mxGeometry width="50" height="50" relative="1" as="geometry">
            <mxPoint x="280" y="899.86" as="sourcePoint" />
            <mxPoint x="300" y="900" as="targetPoint" />
          </mxGeometry>
        </mxCell>
        <mxCell id="SVkBWETr6s5QJQo4iJXT-43" value="" style="endArrow=none;html=1;rounded=0;" edge="1" parent="WIyWlLk6GJQsqaUBKTNV-1">
          <mxGeometry width="50" height="50" relative="1" as="geometry">
            <mxPoint x="280" y="939.86" as="sourcePoint" />
            <mxPoint x="300" y="940" as="targetPoint" />
          </mxGeometry>
        </mxCell>
        <mxCell id="SVkBWETr6s5QJQo4iJXT-46" value="" style="endArrow=none;html=1;rounded=0;" edge="1" parent="WIyWlLk6GJQsqaUBKTNV-1">
          <mxGeometry width="50" height="50" relative="1" as="geometry">
            <mxPoint x="280" y="520" as="sourcePoint" />
            <mxPoint x="370" y="520" as="targetPoint" />
          </mxGeometry>
        </mxCell>
        <mxCell id="SVkBWETr6s5QJQo4iJXT-66" value="&lt;font style=&quot;font-size: 8px;&quot;&gt;}&lt;/font&gt;" style="text;html=1;align=center;verticalAlign=middle;resizable=0;points=[];autosize=1;strokeColor=none;fillColor=none;" vertex="1" parent="WIyWlLk6GJQsqaUBKTNV-1">
          <mxGeometry x="414" y="965" width="30" height="30" as="geometry" />
        </mxCell>
        <mxCell id="SVkBWETr6s5QJQo4iJXT-67" value="" style="endArrow=none;html=1;rounded=0;exitX=1;exitY=0.5;exitDx=0;exitDy=0;" edge="1" parent="WIyWlLk6GJQsqaUBKTNV-1" source="SVkBWETr6s5QJQo4iJXT-24">
          <mxGeometry width="50" height="50" relative="1" as="geometry">
            <mxPoint x="380" y="930" as="sourcePoint" />
            <mxPoint x="540" y="900" as="targetPoint" />
          </mxGeometry>
        </mxCell>
        <mxCell id="SVkBWETr6s5QJQo4iJXT-68" value="" style="endArrow=none;html=1;rounded=0;exitX=1;exitY=0.5;exitDx=0;exitDy=0;" edge="1" parent="WIyWlLk6GJQsqaUBKTNV-1">
          <mxGeometry width="50" height="50" relative="1" as="geometry">
            <mxPoint x="505" y="939.71" as="sourcePoint" />
            <mxPoint x="540" y="939.71" as="targetPoint" />
          </mxGeometry>
        </mxCell>
      </root>
    </mxGraphModel>
  </diagram>
</mxfile>
